<svg width="69" height="26" viewBox="0 0 104.884 39.441">
	<path fill-rule="evenodd" clip-rule="evenodd" fill="#231F20" d="M49.477,19.425l0.036,0.354c3.662,1.048,5.629,3.799,5.634,7.771
	c0.002,2.547-1.212,5.36-3.54,7.706c-2.768,2.767-6.752,4.176-11.855,4.185c-7.806,0.005-15.834-5.061-15.839-13.491
	c-0.007-4.58,2.474-8.476,6.488-11.045l0.002-0.365c-1.353-1.399-2.05-3.215-2.056-5.465c-0.004-5.159,3.591-9.025,9.26-9.032
	c4.024,0,6.561,1.928,6.564,3.597c-0.002,0.724-0.427,1.2-1.029,1.198c-0.883-0.003-2.305-2.183-5.349-2.178
	c-3.18,0.001-5.281,2.242-5.276,5.524c0.003,2.547,0.936,4.269,2.856,5.267c1.076,0.559,2.293,0.244,2.291,0.829
	c0.003,1.509-0.603,2.291-1.865,2.291c-0.607,0.003-1.646-0.269-3.102-0.731c-2.286,1.573-3.592,4.549-3.591,8.507
	c0.011,7.392,4.932,12.599,11.867,12.592c6.276-0.011,10.294-4.126,10.286-9.656c-0.004-3.596-1.834-5.875-4.265-5.874
	c-2.433,0.002-4.318,2.083-4.312,4.9c-0.001,0.309,0.065,0.675,0.111,1.096c-0.246,0.044-0.476,0.1-0.662,0.102
	c-1.077,0.003-1.789-0.935-1.79-2.498c-0.005-2.662,1.606-5.032,5.575-6.806c2.148-0.964,5.046-2.38,7.314-4.009
	c2.383-1.716,3.914-3.51,4.367-6.765c0.11-0.854,0.163-1.869-0.206-2.662c-0.272-0.575-1.14-1.445-1.792-1.31
	c-0.25,0.05-0.486,0.244-0.726,0.349c-0.985,0.448-2.491-0.039-2.494-1.27c0-1.625,2.556-2.429,3.953-2.521
	c0.144-0.013,0.279-0.015,0.389-0.013c1.617,0.086,3.048,0.785,3.848,2.212c1.421,2.578,0.829,5.995-0.54,8.484
	C57.724,14.833,53.435,17.661,49.477,19.425 M98.86,0.256c-4.083,0.004-6.055,0.419-6.053,1.667
	c-0.001,0.934,1.093,1.035,2.453,1.502c1.036,0.371,1.458,0.883,1.462,1.822c-0.002,1.199-1.933,7.36-6.188,18.189
	c-2.027,5.104-3.061,7.667-3.486,7.668c-0.412,0.002-1.985-3.961-4.862-11.771c-2.82-7.663-4.382-12.084-4.382-13.437
	c0-1.248,0.526-2.032,1.51-2.353c1.563-0.463,2.496-0.719,2.495-1.559c-0.002-1.303-2.145-1.709-6.516-1.707
	c-4.375,0.003-6.565,0.463-6.562,1.716c-0.004,1.149,1.937,1.093,2.916,1.876c1.089,0.831,2.354,4.477,4.498,10.888
	c-3.943,10.83-6.128,16.361-6.708,16.359c-0.354,0.004-2.041-3.895-4.865-11.765c-1.142-3.185-1.912-5.246-2.651-7.422l-0.014,0.016
	c-0.851,1.489-1.893,2.787-3.062,3.949c1.946,5.44,4.499,12.547,7.423,19.869c0.942,2.385,1.465,3.59,2.5,3.585
	c1.776,0.001,3.439-6.874,8.836-20.533c5.223,13.646,7.16,20.516,8.831,20.514c1.044,0.001,1.399-1.35,2.49-4.055
	C95.42,18.841,98.545,9.049,99.737,6.606c1.043-2.192,1.723-2.818,3.539-3.402c1.092-0.302,1.609-0.677,1.609-1.295
	C104.881,0.66,102.912,0.246,98.86,0.256 M22.225,31.641c-0.498-0.834-1.692-0.302-1.697,0.526c0.003,0.017-0.008,0.028-0.012,0.05
	c-0.037,0.43-0.079,0.816-0.111,1.147c-0.004,0.039-0.007,0.083-0.008,0.11c-0.043,0.8-0.307,1.137-0.431,1.255
	c-0.18,0.228-0.437,0.399-0.788,0.513c-0.506,0.171-1.21,0.261-2.262,0.26c-0.047,0.004-0.099,0.004-0.157,0.008l-1.978,0.001
	c-3.489,0.006-5.413-0.313-5.931-1.568c-0.584-1.349-0.69-6.196-0.699-14.424C8.142,10.027,8.347,4.978,8.919,4.206
	c0.568-0.794,3.177-0.742,3.176-1.985c-0.003-1.37-1.983-1.872-6.055-1.868C1.98,0.356,0,0.865,0,2.23
	c0.004,1.248,2.601,1.184,3.191,1.982c0.621,0.775,0.726,5.822,0.734,15.307C3.94,29.006,3.845,34.157,3.22,34.94
	c-0.586,0.782-3.182,0.736-3.182,1.985c0.003,1.259,1.406,1.616,4.274,1.608l15.979-0.018v-0.006
	c1.509-0.016,2.627-0.13,4.443,0.081c0.463,0.049,1.283,0.078,1.375-0.528c0.13-0.715-1.578-1.565-2.764-4.011
	C22.862,33.069,22.787,32.575,22.225,31.641"/>
</svg>
