<svg width="144px" height="26px" viewBox="0 0 142.035 25.635">
	<path fill-rule="evenodd" clip-rule="evenodd" fill="#231F20" d="M24.431,7.755c-5.029,0-8.917,3.85-8.917,9.148
	c0,4.815,3.613,8.598,8.446,8.598c4.931,0,8.776-3.915,8.776-9.246C32.736,11.298,29.257,7.755,24.431,7.755z M24.295,23.982
	c-3.209,0-5.806-3.268-5.806-8.061c0-4.119,2.293-6.579,5.166-6.579c3.448,0,6.046,3.338,6.046,7.798
	C29.701,21.524,27.571,23.982,24.295,23.982z M48.941,9.783c-0.776,0.339-1.043,0.876-1.414,1.889
	c-3.549,9.211-5.295,13.963-6.553,13.963c-1.284,0-2.833-4.244-5.977-12.648c-0.575-1.55-0.874-2.527-1.318-2.934
	c-0.439-0.408-1.485-0.336-1.485-1.014c0-0.744,1.077-0.976,3.309-0.976c2.326,0,3.482,0.205,3.482,0.976
	c0,0.508-0.477,0.575-1.213,0.806c-0.37,0.134-0.685,0.481-0.685,0.98c0,0.78,1.225,4.59,4.191,11.035h0.203
	c3.277-6.31,4.53-10.293,4.53-11.202c0-0.506-0.31-0.635-0.812-0.844c-0.742-0.303-1.151-0.397-1.151-0.838
	c0-0.708,0.979-0.914,3.073-0.914c2.092,0,3.073,0.205,3.073,0.914C50.194,9.48,49.588,9.48,48.941,9.783z M52.63,15.921h10.395
	c1.115,0,1.383-0.062,1.383-1.584c0-4.044-2.665-6.582-6.889-6.582c-4.795,0-8.508,3.781-8.508,9.148
	c0,4.922,3.443,8.598,8.176,8.598c2.531,0,4.726-1.016,6.345-2.798c0.573-0.65,0.845-1.254,0.845-1.686
	c0-0.37-0.272-0.611-0.647-0.611c-0.773,0-1.211,1.043-2.259,1.892c-1.048,0.842-2.328,1.279-3.611,1.279
	c-3.379,0-5.81-2.899-5.81-7.016C52.05,16.053,52.184,15.921,52.63,15.921z M53.398,11.129c0.981-1.175,2.302-1.787,3.689-1.787
	c2.73,0,4.59,1.992,4.59,4.488c0,0.548-0.134,0.677-0.642,0.677h-8.341c-0.406,0-0.573-0.098-0.573-0.474
	C52.119,13.33,52.554,12.149,53.398,11.129z M128.475,23.211c-0.17,0-0.442,0.098-0.745,0.098c-0.679,0-0.71-1.519-0.71-4.621
	c0-1.315,0.063-2.859,0.063-4.59c0-4.218-1.856-6.241-5.973-6.241c-3.551,0-6.218,1.925-6.218,3.373
	c0,0.713,0.473,1.145,1.151,1.145c1.08,0,1.454-0.976,2.061-1.685c0.807-0.94,1.758-1.417,2.966-1.417
	c2.471,0,3.377,1.488,3.377,4.726c0,0.336,0,0.673-0.031,1.045c-1.218-0.134-2.395-0.205-3.542-0.205
	c-4.697,0-7.364,2.126-7.364,5.601c0,2.961,2.127,4.855,5.366,4.855c2.03,0,3.68-0.708,5.206-2.224h0.231
	c0.848,1.515,1.254,2.393,2.302,2.393c1.147,0,2.328-1.047,2.328-1.751C128.943,23.403,128.774,23.211,128.475,23.211z
	 M124.416,18.994c0,2.894-1.954,4.65-4.625,4.65c-2.159,0-3.444-1.319-3.444-3.433c0-2.567,1.726-3.986,5.099-3.986
	c0.914,0,1.896,0.105,2.971,0.27V18.994z M142.035,9.783c0,1.114-0.807,1.889-1.824,1.889c-0.91,0-1.588-0.575-1.753-1.693
	c-3.109,1.02-3.109,3.177-3.109,7.023c0,3.574,0.063,5.604,0.334,5.969c0.339,0.504,0.915,0.432,1.624,0.571
	c0.54,0.103,0.808,0.338,0.808,0.637c0,0.718-1.249,1.02-3.881,1.02c-2.257,0-3.346-0.272-3.346-1.02
	c0-0.704,1.089-0.566,1.557-0.998c0.401-0.379,0.468-1.7,0.468-4.015c0-3.781-0.098-6.276-0.299-7.462
	c-0.169-1.145-0.504-1.212-1.352-1.212h-0.303c-0.339,0-0.683-0.303-0.683-0.677c0-0.473,0.411-0.775,1.151-1.145
	c1.485-0.775,2.498-1.012,2.703-1.012c0.642,0,0.919,1.047,1.115,3.276l0.201,0.102c1.454-2.237,3.069-3.342,4.531-3.342
	C141.227,7.693,142.035,8.535,142.035,9.783z M115.972,4.447c-0.78,1.584-2.801,7.93-7.025,18.564
	c-0.709,1.747-0.95,2.624-1.619,2.624c-1.075,0-2.333-4.454-5.705-13.29c-3.515,8.836-4.594,13.29-5.754,13.29
	c-0.665,0-1.008-0.775-1.61-2.326c-1.887-4.748-3.541-9.346-4.795-12.869c0.753-0.742,1.445-1.588,1.985-2.553l0.013-0.006
	c0.482,1.399,0.981,2.74,1.713,4.799c1.829,5.102,2.904,7.629,3.145,7.629c0.366,0,1.789-3.576,4.349-10.592
	c-0.901-2.707-1.557-4.644-2.101-5.824c-0.29-0.626-0.553-1.038-0.799-1.23c-0.642-0.504-1.9-0.473-1.9-1.212
	c0-0.668,0.986-0.993,2.926-1.087c0.406-0.013,0.847-0.026,1.334-0.026c2.846,0,4.229,0.272,4.229,1.114
	c0,0.535-0.611,0.709-1.619,1.007c-0.647,0.205-0.981,0.709-0.981,1.524c0,0.874,1.017,3.743,2.832,8.698
	c1.86,5.062,2.868,7.629,3.14,7.629c0.268,0,0.946-1.662,2.271-4.964c2.761-7.01,4.005-10.993,4.005-11.764
	c0-0.61-0.263-0.953-0.937-1.186c-0.883-0.303-1.592-0.372-1.592-0.98c0-0.806,1.285-1.078,3.921-1.078
	c2.632,0,3.912,0.272,3.912,1.078c0,0.41-0.334,0.646-1.048,0.851C117.078,2.627,116.645,3.032,115.972,4.447z M15.106,22.169
	c0.769,1.586,1.862,2.139,1.786,2.607c-0.063,0.383-0.589,0.365-0.887,0.334c-1.182-0.143-1.905-0.062-2.886-0.058
	c0.007,0,0.007,0.005,0.009,0.018H2.766C0.91,25.069,0,24.829,0,24.014c0-0.802,1.682-0.775,2.061-1.274
	c0.408-0.513,0.47-3.848,0.47-9.986c0-6.141-0.062-9.414-0.47-9.922C1.682,2.333,0,2.364,0,1.548c0-0.871,1.285-1.212,3.921-1.212
	c2.632,0,3.908,0.341,3.908,1.212c0,0.816-1.682,0.785-2.056,1.284c-0.368,0.508-0.504,3.781-0.504,9.922
	c0,5.322,0.071,8.468,0.442,9.344C6.044,22.899,7.293,23.1,9.554,23.1h1.285h0.094c0.683,0,1.142-0.053,1.472-0.165
	c0.227-0.076,0.388-0.182,0.504-0.329c0.085-0.076,0.255-0.29,0.281-0.811c0-0.018,0.009-0.049,0.009-0.076
	c0.025-0.216,0.047-0.457,0.076-0.737V20.95c0.011-0.53,0.78-0.878,1.102-0.338C14.749,21.226,14.791,21.534,15.106,22.169z
	 M83.388,12.586l0.031,0.236c2.364,0.673,3.635,2.462,3.635,5.022c0,1.649-0.789,3.476-2.302,4.989
	c-1.789,1.791-4.376,2.7-7.685,2.7c-5.058,0-10.255-3.28-10.255-8.734c0-2.976,1.61-5.496,4.224-7.154V9.411
	c-0.892-0.909-1.338-2.092-1.338-3.541c0-3.342,2.329-5.835,6.008-5.835c2.609,0,4.251,1.25,4.251,2.328
	c0,0.468-0.277,0.777-0.669,0.777c-0.579,0-1.485-1.414-3.466-1.414c-2.056,0-3.425,1.444-3.425,3.572
	c0,1.648,0.602,2.769,1.851,3.406c0.696,0.368,1.494,0.169,1.494,0.535c0,0.98-0.397,1.484-1.222,1.484
	c-0.392,0-1.057-0.165-2.003-0.468c-1.481,1.007-2.342,2.937-2.342,5.498c0,4.79,3.189,8.157,7.686,8.157
	c4.064,0,6.677-2.654,6.677-6.236c0-2.326-1.186-3.81-2.756-3.81c-1.579,0-2.801,1.352-2.801,3.172c0,0.201,0.036,0.441,0.062,0.711
	c-0.147,0.034-0.303,0.065-0.424,0.065c-0.7,0-1.155-0.61-1.155-1.617c0-1.72,1.044-3.255,3.609-4.403
	c1.4-0.628,3.279-1.542,4.75-2.591c1.539-1.105,2.534-2.275,2.832-4.38c0.076-0.553,0.107-1.206-0.134-1.727
	c-0.071-0.147-0.214-0.334-0.374-0.497c-0.429-0.332-0.776-0.314-1.231-0.083c-1.106,0.548-2.007-0.492-1.708-1.381
	c0.084-0.223,0.241-0.441,0.486-0.619c0.718-0.508,1.869-0.591,2.712-0.459c0.901,0.129,1.726,0.583,2.177,1.399
	c0.928,1.671,0.531,3.886-0.357,5.486C88.736,9.627,85.952,11.447,83.388,12.586z"/>
</svg>