<svg width="18px" height="18px" viewBox="0 0 18 18" version="1.1" xmlns="http://www.w3.org/2000/svg" xmlns:xlink="http://www.w3.org/1999/xlink">
    <g id="Desktop-v2" stroke="none" stroke-width="1" fill="none" fill-rule="evenodd">
        <g id="Category--Thumbs--Default" transform="translate(-1346.000000, -41.000000)" fill="#333333" fill-rule="nonzero">
            <g id="Menu">
                <g id="Icons" transform="translate(1346.000000, 41.000000)">
                    <g id="Icon-/-Grid">
                        <path d="M0,0 L2.98421053,0 L2.98421053,2.98421053 L0,2.98421053 L0,0 Z M4.68947368,0 L7.67368421,0 L7.67368421,2.98421053 L4.68947368,2.98421053 L4.68947368,0 Z M9.37894737,0 L12.3631579,0 L12.3631579,2.98421053 L9.37894737,2.98421053 L9.37894737,0 Z M14.0684211,0 L17.0526316,0 L17.0526316,2.98421053 L14.0684211,2.98421053 L14.0684211,0 Z M0,4.68947368 L2.98421053,4.68947368 L2.98421053,7.67368421 L0,7.67368421 L0,4.68947368 Z M4.68947368,4.68947368 L7.67368421,4.68947368 L7.67368421,7.67368421 L4.68947368,7.67368421 L4.68947368,4.68947368 Z M9.37894737,4.68947368 L12.3631579,4.68947368 L12.3631579,7.67368421 L9.37894737,7.67368421 L9.37894737,4.68947368 Z M14.0684211,4.68947368 L17.0526316,4.68947368 L17.0526316,7.67368421 L14.0684211,7.67368421 L14.0684211,4.68947368 Z M0,9.37894737 L2.98421053,9.37894737 L2.98421053,12.3631579 L0,12.3631579 L0,9.37894737 Z M4.68947368,9.37894737 L7.67368421,9.37894737 L7.67368421,12.3631579 L4.68947368,12.3631579 L4.68947368,9.37894737 Z M9.37894737,9.37894737 L12.3631579,9.37894737 L12.3631579,12.3631579 L9.37894737,12.3631579 L9.37894737,9.37894737 Z M14.0684211,9.37894737 L17.0526316,9.37894737 L17.0526316,12.3631579 L14.0684211,12.3631579 L14.0684211,9.37894737 Z M0,14.0684211 L2.98421053,14.0684211 L2.98421053,17.0526316 L0,17.0526316 L0,14.0684211 Z M4.68947368,14.0684211 L7.67368421,14.0684211 L7.67368421,17.0526316 L4.68947368,17.0526316 L4.68947368,14.0684211 Z M9.37894737,14.0684211 L12.3631579,14.0684211 L12.3631579,17.0526316 L9.37894737,17.0526316 L9.37894737,14.0684211 Z M14.0684211,14.0684211 L17.0526316,14.0684211 L17.0526316,17.0526316 L14.0684211,17.0526316 L14.0684211,14.0684211 Z" id="Icon-/-Thumbnails-/-Small-Grid"></path>
                    </g>
                </g>
            </g>
        </g>
    </g>
</svg>