<?xml version="1.0" encoding="UTF-8"?>
<svg width="17px" height="20px" viewBox="0 0 17 20" version="1.1" xmlns="http://www.w3.org/2000/svg" xmlns:xlink="http://www.w3.org/1999/xlink">
    <!-- Generator: Sketch 55.1 (78136) - https://sketchapp.com -->
    <title>Combined Shape</title>
    <desc>Created with Sketch.</desc>
    <g id="Mobile-v2" stroke="none" stroke-width="1" fill="none" fill-rule="evenodd">
        <g id="Mobile--About-Menu-Copy" transform="translate(-446.000000, -181.000000)" fill="#FFFFFF" fill-rule="nonzero">
            <path d="M453.846643,184.09928 L453.373682,183.626318 C452.772875,183.025512 452.772875,182.051412 453.373682,181.450605 C453.974488,180.849798 454.948588,180.849798 455.549395,181.450605 L458.626318,184.527528 C459.227125,185.128335 459.227125,186.102435 458.626318,186.703241 L455.549395,189.780164 C454.948588,190.380971 453.974488,190.380971 453.373682,189.780164 C452.772875,189.179358 452.772875,188.205258 453.373682,187.604451 L453.781137,187.196996 C452.60407,187.346944 451.502351,187.882978 450.654203,188.731126 C449.644309,189.74102 449.076923,191.110421 449.076923,192.538462 C449.076923,193.966502 449.644309,195.335903 450.654203,196.345797 C451.664097,197.355691 453.033498,197.923077 454.461538,197.923077 C455.889579,197.923077 457.25898,197.355691 458.268874,196.345797 C459.278768,195.335903 459.846154,193.966502 459.846154,192.538462 C459.846154,191.688793 460.534947,191 461.384615,191 C462.234284,191 462.923077,191.688793 462.923077,192.538462 C462.923077,194.782664 462.031438,196.93466 460.444587,198.52151 C458.857737,200.108361 456.70574,201 454.461538,201 C452.217336,201 450.06534,200.108361 448.47849,198.52151 C446.891639,196.93466 446,194.782664 446,192.538462 C446,190.29426 446.891639,188.142263 448.47849,186.555413 C449.919777,185.114125 451.827283,184.246355 453.846643,184.09928 Z" id="Combined-Shape"></path>
        </g>
    </g>
</svg>