<!-- Generator: Adobe Illustrator 17.0.0, SVG Export Plug-In  -->
<svg version="1.1"
	 xmlns="http://www.w3.org/2000/svg" xmlns:xlink="http://www.w3.org/1999/xlink" xmlns:a="http://ns.adobe.com/AdobeSVGViewerExtensions/3.0/"
	 x="0px" y="0px" width="40.835px" height="50px" viewBox="0 0 40.835 50" enable-background="new 0 0 40.835 50"
	 xml:space="preserve">
<defs>
</defs>
<g>
	<path fill="#373232" d="M38.672,21.989c0.15,0.285,0.461,0.448,0.778,0.407c0.318-0.039,0.578-0.272,0.652-0.585
		c1.247-5.255,0.904-9.155-1.023-11.593c-0.821-1.039-1.924-1.805-3.278-2.276c-1.075-0.374-2.313-0.565-3.679-0.565
		c-1.642,0-3.136,0.27-4.089,0.494c0.066-0.442,0.199-0.989,0.462-1.544c0.778-1.638,2.329-2.592,4.602-2.834
		c0.317-0.034,0.58-0.259,0.663-0.567c0.081-0.308-0.035-0.635-0.293-0.821C31.529,0.708,29.554,0,27.595,0
		c-3.281,0-5.747,1.937-7.177,3.458C18.986,1.937,16.521,0,13.241,0C11.282,0,9.307,0.708,7.37,2.105
		C7.111,2.291,6.995,2.619,7.077,2.926c0.082,0.308,0.345,0.533,0.662,0.567c2.274,0.242,3.823,1.196,4.602,2.834
		c0.263,0.555,0.397,1.102,0.462,1.544c-0.953-0.224-2.448-0.494-4.089-0.494c-1.366,0-2.604,0.19-3.679,0.565
		c-1.354,0.471-2.457,1.238-3.278,2.276c-1.927,2.438-2.271,6.338-1.024,11.593c0.074,0.313,0.334,0.546,0.653,0.585
		c0.318,0.041,0.628-0.122,0.777-0.407c2.075-3.965,4.345-6.149,6.392-6.149c0.185,0,0.357,0.017,0.511,0.046
		c-0.743,0.69-1.64,1.817-2.01,3.449c-0.583,2.591,0.343,5.559,2.756,8.819c0.176,0.238,0.472,0.355,0.764,0.298
		c0.292-0.057,0.524-0.274,0.598-0.562c0.586-2.266,2.331-7.534,5.857-7.534c0.073,0,0.131,0.002,0.178,0.003
		c0.027,0,0.051,0.002,0.073,0.002c0.311,0.091,0.514,0.18,0.645,0.252c-0.25,0.537-0.391,1.238-0.391,1.99
		c0,0.685,0.116,1.33,0.323,1.846c-0.31,0.545-0.484,1.254-0.484,2.022c0,0.64,0.126,1.253,0.356,1.764
		c-0.428,0.582-0.679,1.405-0.679,2.296c0,0.763,0.185,1.477,0.512,2.035c-0.522,0.691-0.834,1.789-0.834,3.049
		c0,1.252,0.308,2.33,0.823,3.021c-2.313,0.661-5.373,0.28-6.808-1.155c-0.385-0.385-1.067-0.385-1.452,0
		c-0.929,0.929-2.301,1.462-3.763,1.462c-1.463,0-2.835-0.533-3.765-1.462c-0.4-0.401-1.051-0.401-1.451,0
		c-0.402,0.401-0.402,1.052,0,1.452c1.312,1.311,3.212,2.064,5.216,2.064c1.663,0,3.257-0.519,4.5-1.447
		c1.381,0.973,3.285,1.459,5.188,1.459c1.91,0,3.819-0.489,5.202-1.468c1.316,0.923,3.186,1.456,5.196,1.456
		c2.005,0,3.87-0.531,5.186-1.449c2.816,2.096,7.213,1.891,9.72-0.615c0.401-0.401,0.401-1.052,0-1.452
		c-0.401-0.401-1.052-0.401-1.453,0c-1.935,1.935-5.592,1.935-7.527,0c-0.385-0.385-1.067-0.385-1.452,0
		c-0.903,0.901-2.616,1.462-4.473,1.462c-0.824,0-1.615-0.117-2.325-0.318c0.51-0.691,0.814-1.765,0.814-3.01
		c0-1.26-0.313-2.358-0.835-3.048c0.328-0.558,0.511-1.272,0.511-2.036c0-0.893-0.25-1.716-0.678-2.297
		c0.229-0.51,0.357-1.124,0.357-1.763c0-0.769-0.174-1.477-0.484-2.022c0.207-0.516,0.323-1.161,0.323-1.846
		c0-0.754-0.141-1.454-0.39-1.989c0.13-0.072,0.334-0.162,0.646-0.253c0.021,0,0.045-0.001,0.072-0.002
		c0.046-0.002,0.105-0.003,0.177-0.003c3.527,0,5.271,5.269,5.857,7.534c0.074,0.288,0.307,0.505,0.598,0.562
		c0.291,0.057,0.589-0.06,0.765-0.298c2.412-3.261,3.338-6.229,2.755-8.819c-0.369-1.631-1.265-2.758-2.009-3.448
		c0.155-0.029,0.326-0.047,0.511-0.047C34.329,15.84,36.597,18.024,38.672,21.989z M18.698,12.461
		c-0.735,0.735-1.746,1.102-2.758,1.102c-1.012,0-2.023-0.367-2.757-1.102c-0.247-0.246-0.247-0.647,0-0.894
		c0.246-0.248,0.647-0.248,0.895,0c0.957,0.956,2.767,0.956,3.724,0c0.248-0.248,0.649-0.248,0.896,0
		C18.944,11.814,18.944,12.215,18.698,12.461z M27.654,12.461c-0.694,0.694-1.698,1.093-2.757,1.093
		c-1.058,0-2.064-0.398-2.757-1.093c-0.248-0.246-0.248-0.647,0-0.894c0.247-0.248,0.648-0.248,0.895,0
		c0.458,0.458,1.138,0.721,1.862,0.721c0.724,0,1.403-0.263,1.862-0.721c0.247-0.248,0.647-0.248,0.895,0
		C27.901,11.814,27.901,12.215,27.654,12.461z"/>
	<path fill="#373232" d="M32.028,46.771c-1.54,1.538-5.624,1.538-7.164,0c-0.401-0.402-1.051-0.402-1.452,0
		c-1.54,1.538-5.623,1.539-7.163-0.001c-0.4-0.401-1.051-0.401-1.452,0.001c-1.538,1.538-4.449,1.538-5.988,0
		c-0.401-0.402-1.051-0.402-1.452,0c-0.401,0.4-0.401,1.051,0,1.452C8.54,49.407,10.171,50,11.802,50
		c1.326,0,2.651-0.392,3.736-1.173c2.332,1.551,6.276,1.548,8.6-0.011c2.593,1.74,7.207,1.541,9.342-0.593
		c0.4-0.401,0.4-1.052,0-1.452C33.079,46.369,32.43,46.369,32.028,46.771z"/>
</g>
</svg>
