<?xml version="1.0" encoding="utf-8"?>
<!-- Generator: Adobe Illustrator 17.0.0, SVG Export Plug-In . SVG Version: 6.00 Build 0)  -->
<!DOCTYPE svg PUBLIC "-//W3C//DTD SVG 1.1//EN" "http://www.w3.org/Graphics/SVG/1.1/DTD/svg11.dtd">
<svg version="1.1" id="Layer_1" xmlns="http://www.w3.org/2000/svg" xmlns:xlink="http://www.w3.org/1999/xlink" x="0px" y="0px"
	 width="311.068px" height="56.2px" viewBox="0 0 311.068 56.2" enable-background="new 0 0 311.068 56.2" xml:space="preserve">
<path id="XMLID_8_" fill="#FFFFFF" d="M53.505,17.002c-11.014,0-19.528,8.44-19.528,20.056c0,10.555,7.913,18.849,18.498,18.849
	c10.799,0,19.22-8.582,19.22-20.271C71.694,24.769,64.074,17.002,53.505,17.002z M53.206,52.577
	c-7.029,0-12.714-7.166-12.714-17.672c0-9.031,5.021-14.424,11.313-14.424c7.551,0,13.241,7.317,13.241,17.095
	C65.046,47.188,60.382,52.577,53.206,52.577z M109.93,19.679c0-1.553-2.149-2.002-6.731-2.002c-4.587,0-6.731,0.45-6.731,2.002
	c0,0.967,0.895,1.172,2.521,1.837c1.099,0.459,1.778,0.743,1.778,1.851c0,1.993-2.745,10.726-9.921,24.559h-0.444
	c-6.496-14.131-9.178-22.483-9.178-24.193c0-1.094,0.689-1.856,1.5-2.149c1.612-0.508,2.657-0.655,2.657-1.768
	c0-1.69-2.53-2.139-7.625-2.139c-4.889,0-7.248,0.508-7.248,2.139c0,1.485,2.291,1.329,3.253,2.222
	c0.972,0.894,1.627,3.034,2.887,6.433C83.534,46.895,86.925,56.2,89.737,56.2c2.755,0,6.58-10.418,14.351-30.611
	c0.811-2.222,1.397-3.399,3.097-4.142C108.602,20.783,109.93,20.783,109.93,19.679z M115.264,34.904h22.767
	c2.442,0,3.028-0.137,3.028-3.473c0-8.865-5.837-14.429-15.089-14.429c-10.502,0-18.634,8.289-18.634,20.056
	c0,10.79,7.542,18.849,17.907,18.849c5.544,0,10.35-2.228,13.896-6.135c1.255-1.426,1.851-2.75,1.851-3.698
	c0-0.811-0.596-1.338-1.417-1.338c-1.694,0-2.652,2.286-4.948,4.147c-2.295,1.847-5.099,2.803-7.908,2.803
	c-7.4,0-12.724-6.354-12.724-15.381C113.994,35.193,114.287,34.904,115.264,34.904z M116.944,24.398
	c2.149-2.574,5.041-3.917,8.079-3.917c5.978,0,10.052,4.366,10.052,9.837c0,1.201-0.294,1.485-1.407,1.485h-18.267
	c-0.889,0-1.256-0.215-1.256-1.041C114.145,29.223,115.098,26.635,116.944,24.398z M281.371,50.886
	c-0.372,0-0.968,0.215-1.632,0.215c-1.485,0-1.554-3.331-1.554-10.13c0-2.882,0.137-6.267,0.137-10.062
	c0-9.246-4.064-13.681-13.08-13.681c-7.776,0-13.618,4.22-13.618,7.395c0,1.563,1.036,2.511,2.521,2.511
	c2.364,0,3.184-2.139,4.513-3.693c1.768-2.061,3.849-3.106,6.496-3.106c5.412,0,7.395,3.262,7.395,10.36
	c0,0.737,0,1.475-0.068,2.291c-2.667-0.293-5.246-0.45-7.757-0.45c-10.286,0-16.128,4.66-16.128,12.28
	c0,6.491,4.659,10.643,11.752,10.643c4.444,0,8.059-1.553,11.4-4.874h0.508c1.856,3.322,2.745,5.246,5.04,5.246
	c2.511,0,5.099-2.296,5.099-3.839C282.396,51.306,282.025,50.886,281.371,50.886z M272.481,41.64c0,6.345-4.279,10.194-10.13,10.194
	c-4.728,0-7.542-2.892-7.542-7.527c0-5.627,3.78-8.739,11.166-8.739c2.002,0,4.151,0.23,6.506,0.591V41.64z M306.564,16.866
	c-3.204,0-6.74,2.423-9.925,7.327l-0.439-0.224c-0.43-4.885-1.036-7.181-2.443-7.181c-0.45,0-2.667,0.518-5.92,2.218
	c-1.621,0.811-2.521,1.475-2.521,2.511c0,0.821,0.753,1.485,1.495,1.485c0.215,0,0.439,0,0.665,0c1.856,0,2.589,0.147,2.96,2.657
	c0.439,2.599,0.654,8.069,0.654,16.358c0,5.075-0.146,7.972-1.025,8.802c-1.026,0.948-3.41,0.645-3.41,2.189
	c0,1.641,2.384,2.237,7.327,2.237c5.763,0,8.499-0.664,8.499-2.237c0-0.655-0.586-1.172-1.768-1.397
	c-1.553-0.303-2.813-0.146-3.556-1.25c-0.595-0.801-0.732-5.251-0.732-13.085c0-8.431,0-13.159,6.809-15.396
	c0.361,2.452,1.846,3.712,3.839,3.712c2.227,0,3.995-1.7,3.995-4.142C311.068,18.712,309.299,16.866,306.564,16.866z M259,4.967
	c1.563-0.449,2.295-0.967,2.295-1.866c0-1.768-2.803-2.364-8.567-2.364c-5.773,0-8.587,0.596-8.587,2.364
	c0,1.333,1.553,1.485,3.487,2.149c1.475,0.509,2.052,1.261,2.052,2.599c0,1.69-2.725,10.424-8.772,25.79
	c-2.902,7.239-4.386,10.883-4.973,10.883c-0.595,0-2.803-5.627-6.877-16.725c-3.976-10.863-6.204-17.154-6.204-19.069
	c0-1.788,0.733-2.892,2.15-3.341c2.208-0.654,3.546-1.036,3.546-2.208c0-1.846-3.028-2.442-9.261-2.442
	c-1.065,0-2.032,0.029-2.921,0.058C212.119,1,209.96,1.713,209.96,3.179c0,1.622,2.755,1.554,4.161,2.657
	c0.537,0.42,1.114,1.324,1.749,2.696c1.192,2.589,2.628,6.833,4.601,12.768c-5.607,15.381-8.723,23.221-9.525,23.221
	c-0.528,0-2.882-5.539-6.887-16.725c-1.602-4.513-2.696-7.454-3.752-10.521l-0.029,0.014c-1.183,2.115-2.696,3.971-4.347,5.598
	c2.745,7.723,6.369,17.804,10.501,28.213c1.319,3.4,2.071,5.099,3.527,5.099c2.54,0,4.904-9.764,12.601-29.136
	c7.385,19.372,10.14,29.136,12.495,29.136c1.465,0,1.993-1.924,3.546-5.754c9.251-23.314,13.677-37.225,15.386-40.698
	C255.463,6.647,256.411,5.759,259,4.967z M31.486,45.186c-0.704-1.182-2.388-0.42-2.413,0.743c0,0,0,0.039,0,0.068
	c-0.064,0.615-0.112,1.143-0.166,1.617c0,0.059-0.019,0.127-0.019,0.166c-0.059,1.143-0.43,1.612-0.616,1.778
	c-0.254,0.322-0.606,0.557-1.104,0.723c-0.723,0.244-1.729,0.361-3.223,0.361c-0.059,0-0.137,0-0.205,0h-2.814
	c-4.953,0-7.688-0.439-8.421-2.198c-0.811-1.919-0.967-8.816-0.967-20.485c0-13.462,0.298-20.637,1.104-21.751
	c0.821-1.094,4.503-1.026,4.503-2.813c0-1.909-2.794-2.657-8.558-2.657C2.814,0.737,0,1.485,0,3.394
	c0,1.788,3.683,1.719,4.513,2.813c0.894,1.114,1.031,8.289,1.031,21.751c0,13.456-0.137,20.769-1.031,21.892
	C3.683,50.945,0,50.886,0,52.645c0,1.788,1.993,2.315,6.057,2.315H28.75c-0.005-0.029-0.005-0.039-0.02-0.039
	c2.15-0.01,3.732-0.185,6.321,0.127c0.654,0.068,1.807,0.107,1.944-0.733c0.166-1.025-2.227-2.237-3.913-5.715
	C32.394,47.208,32.301,46.534,31.486,45.186z M197.601,15.215c1.944-3.507,2.814-8.362,0.782-12.026
	c-0.986-1.788-2.794-2.784-4.767-3.067c-1.846-0.288-4.367-0.107-5.94,1.006c-0.537,0.391-0.879,0.869-1.065,1.358
	c-0.654,1.949,1.319,4.23,3.741,3.028c0.996-0.508,1.758-0.547,2.696,0.181c0.352,0.357,0.665,0.766,0.821,1.089
	c0.528,1.143,0.459,2.574,0.293,3.786c-0.654,4.615-2.833,7.18-6.203,9.603c-3.223,2.301-7.337,4.303-10.404,5.681
	c-5.617,2.515-7.903,5.881-7.903,9.652c0,2.208,0.996,3.546,2.53,3.546c0.264,0,0.606-0.068,0.928-0.142
	c-0.058-0.591-0.136-1.119-0.136-1.558c0-3.991,2.676-6.955,6.135-6.955c3.438,0,6.037,3.253,6.037,8.352
	c0,7.854-5.725,13.672-14.624,13.672c-9.847,0-16.832-7.38-16.832-17.882c0-5.617,1.885-9.847,5.129-12.055
	c2.071,0.665,3.527,1.026,4.386,1.026c1.807,0,2.677-1.104,2.677-3.253c0-0.801-1.749-0.367-3.273-1.172
	c-2.735-1.397-4.054-3.854-4.054-7.468c0-4.665,2.999-7.83,7.502-7.83c4.338,0,6.321,3.102,7.59,3.102
	c0.86,0,1.466-0.679,1.466-1.704c0-2.364-3.596-5.104-9.31-5.104c-8.059,0-13.159,5.466-13.159,12.792
	c0,3.175,0.977,5.769,2.93,7.762v0.513c-5.725,3.634-9.251,9.158-9.251,15.684c0,11.957,11.381,19.147,22.459,19.147
	c7.248,0,12.914-1.993,16.832-5.92c3.312-3.316,5.041-7.322,5.041-10.936c0-5.612-2.784-9.535-7.962-11.01l-0.068-0.518
	C188.243,25.096,194.339,21.105,197.601,15.215z"/>
</svg>
